PathFileType	4	(X/Y/Z)	C:\Users\Basilio\Documents\Thesis Gigler\squatting_fais\c3dfiles\038\SLS_front_pre2\markers_experimental.trc
DataRate	CameraRate	NumFrames	NumMarkers	Units	OrigDataRate	OrigDataStartFrame	OrigNumFrames
200.000000	200.000000	4	61	mm	200.000000	684	1369
Frame#	Time	FHD			LBHD			RBHD			C7			T10			CLAV			LSHO			LUUPA			LMUPA			LDUPA			LLEP			LMEP			LUL			LRFIN			RSHO			RUPA1			RMUPA			RDUPA			RLEP			RMEP			RRAD			RUL			RUFIN			LASI			RASI			USACR			LSACR			RSACR			LTHI1			LTHI2			LTHI3			LTHI4			LLFC			LMFC			LTIB1			LTIB2			LTIB3			LTIB4			LLMAL			LMMAL			LHEE			LMT1			LMT2			LMT5			RTHI			RTHI2			RTHI3			RTHI4			RLFC			RMFC			RTIB1			RTIB2			RTIB3			RTIB4			RLMAL			RMMAL			RHEE			RMT1			RMT2			RMT5			LRAD			
		X1	Y1	Z1	X2	Y2	Z2	X3	Y3	Z3	X4	Y4	Z4	X5	Y5	Z5	X6	Y6	Z6	X7	Y7	Z7	X8	Y8	Z8	X9	Y9	Z9	X10	Y10	Z10	X11	Y11	Z11	X12	Y12	Z12	X13	Y13	Z13	X14	Y14	Z14	X15	Y15	Z15	X16	Y16	Z16	X17	Y17	Z17	X18	Y18	Z18	X19	Y19	Z19	X20	Y20	Z20	X21	Y21	Z21	X22	Y22	Z22	X23	Y23	Z23	X24	Y24	Z24	X25	Y25	Z25	X26	Y26	Z26	X27	Y27	Z27	X28	Y28	Z28	X29	Y29	Z29	X30	Y30	Z30	X31	Y31	Z31	X32	Y32	Z32	X33	Y33	Z33	X34	Y34	Z34	X35	Y35	Z35	X36	Y36	Z36	X37	Y37	Z37	X38	Y38	Z38	X39	Y39	Z39	X40	Y40	Z40	X41	Y41	Z41	X42	Y42	Z42	X43	Y43	Z43	X44	Y44	Z44	X45	Y45	Z45	X46	Y46	Z46	X47	Y47	Z47	X48	Y48	Z48	X49	Y49	Z49	X50	Y50	Z50	X51	Y51	Z51	X52	Y52	Z52	X53	Y53	Z53	X54	Y54	Z54	X55	Y55	Z55	X56	Y56	Z56	X57	Y57	Z57	X58	Y58	Z58	X59	Y59	Z59	X60	Y60	Z60	X61	Y61	Z61	

685	3.42	-223.3515167236329	1575.39013671875	-1107.418701171875	-379.4918823242188	1527.97705078125	-1170.205810546875	-373.3983764648438	1514.454467773438	-1025.431396484375	-445.5400695800782	1366.428833007813	-1094.648681640625	-495.6066284179689	1088.614013671875	-1070.830322265625	-303.2965087890626	1328.151733398438	-1104.408203125	-365.7303161621094	1378.405883789063	-1240.346923828125	-203.984848022461	1323.728393554688	-1370.048950195313	-176.7305755615235	1356.0693359375	-1341.320678710938	-134.8478088378907	1330.903076171875	-1376.198852539063	-73.83753204345705	1333.629028320313	-1376.18310546875	-63.49721527099611	1259.954345703125	-1354.7666015625	221.9449768066407	1343.8701171875	-1348.715454101563	285.3082885742188	1359.773803710938	-1259.52685546875	-347.0161743164063	1371.621459960938	-964.7960205078127	-193.5688629150391	1349.532348632813	-845.4530029296877	-158.1275329589844	1360.216552734375	-877.327331542969	-125.5896301269532	1347.67041015625	-827.6511230468752	-53.07534408569337	1345.102294921875	-816.8408203125002	-45.98717880249024	1267.91064453125	-835.5035400390627	228.8307800292969	1345.087646484375	-873.3741455078127	232.7490692138672	1358.851806640625	-804.822448730469	308.1221618652344	1380.232666015625	-871.8623046875002	-322.9216308593751	895.3326416015627	-1151.51416015625	-364.6880798339844	926.0964355468752	-906.4160766601565	-511.2747802734376	924.1007080078127	-1050.324829101563	-514.7592773437501	889.913757324219	-1076.463256835938	-522.9605712890626	894.0638427734377	-1020.200500488281	-208.8038940429688	619.5218505859376	-1213.359008789063	-139.2087097167969	568.9245605468751	-1211.715942382813	-103.1808547973633	596.1195068359376	-1188.88134765625	-137.2391967773438	510.4984741210939	-1194.84375	-115.5377044677735	459.700897216797	-1181.85009765625	-102.5372695922852	465.5194396972657	-1066.495483398438	-147.2705688476563	291.3129882812501	-1082.402099609375	-207.9747924804688	264.0176086425782	-1141.258056640625	-176.3425903320313	248.8162841796876	-1110.727416992188	-224.867904663086	191.5116882324219	-1069.076782226563	-360.3137207031251	107.8880386352539	-1078.480712890625	-318.1232910156251	125.9684677124024	-1005.829040527344	-416.6470031738282	93.45387268066408	-1016.768798828125	-216.0602722167969	45.90392684936524	-1017.94287109375	-209.7341918945313	45.55368041992188	-1068.905639648438	-257.0408935546876	33.22653961181641	-1113.082763671875	-255.5377349853516	706.2509155273439	-833.2413330078127	-189.1522979736328	697.1411132812501	-832.580993652344	-168.3119659423828	721.7828979492189	-840.0993652343752	-149.8190002441407	620.5142822265626	-843.6981201171877	-39.19663238525391	541.5731201171876	-849.5903320312502	-38.60927200317384	535.4366455078126	-970.2596435546877	114.6598892211914	442.2342834472657	-869.2114257812502	111.6227493286133	332.4241333007813	-828.2954711914065	143.7556762695313	365.6320800781251	-839.5260009765627	186.7548217773438	335.9663391113282	-865.5714111328127	224.6309967041016	202.3947143554688	-828.3779907226565	241.2034149169922	227.7659912109376	-909.3898925781252	227.9761657714844	121.4911346435547	-891.1539306640627	365.9203796386719	289.3126525878907	-878.6870727539065	358.0287780761719	292.8338623046876	-832.4586181640627	346.3818664550782	247.1839447021485	-788.0962524414065	215.3765106201172	1325.719360351563	-1277.852294921875	
686	3.425	-222.481430053711	1573.671752929688	-1107.641723632813	-378.7553710937501	1526.94921875	-1170.35986328125	-372.7812500000001	1513.601684570313	-1025.589111328125	-445.049774169922	1365.689208984375	-1094.679565429688	-495.6751708984376	1087.849365234375	-1070.770874023438	-302.7056884765626	1326.942626953125	-1104.5869140625	-365.2645568847657	1377.42041015625	-1240.403442382813	-203.5698547363282	1322.608154296875	-1370.071044921875	-176.1407928466797	1354.902465820313	-1341.47021484375	-133.8468627929688	1329.510375976563	-1376.23876953125	-73.25422668457033	1332.421142578125	-1376.226806640625	-62.9751663208008	1258.667602539063	-1354.587036132813	222.4516143798829	1343.019653320313	-1348.704833984375	285.7129211425782	1359.440673828125	-1259.456420898438	-346.3003234863282	1370.634155273438	-965.015808105469	-192.6205291748047	1349.08349609375	-845.7656860351565	-157.3967437744141	1359.322021484375	-877.6562500000002	-125.0831756591797	1346.861450195313	-827.7875976562502	-52.20559310913087	1344.3076171875	-816.9937744140627	-45.18185043334962	1267.484252929688	-835.6519165039065	229.4767456054688	1344.017944335938	-873.352233886719	233.5104370117188	1358.093017578125	-804.8882446289065	308.9167175292969	1379.8251953125	-872.2007446289065	-323.0098266601563	894.4941406250002	-1151.412841796875	-365.0261535644532	925.3286132812502	-906.3059082031252	-511.4217529296876	923.1450195312502	-1050.328125	-515.0753784179689	888.8593750000002	-1076.454467773438	-523.1395874023439	893.2218017578127	-1020.257873535156	-208.4231567382813	618.9673461914064	-1213.322387695313	-138.9125366210938	568.4000854492189	-1211.603759765625	-102.981918334961	595.7743530273439	-1188.705322265625	-136.8487548828125	510.0699157714845	-1194.635864257813	-114.9559173583985	459.3411865234376	-1181.7197265625	-101.9506988525391	465.0455932617189	-1066.273193359375	-146.934326171875	291.0556030273438	-1082.129028320313	-207.4921112060547	263.7928161621094	-1141.14697265625	-175.3898162841797	247.3245239257813	-1110.193969726563	-224.7165222167969	191.4394226074219	-1068.823974609375	-360.2224121093751	107.51123046875	-1078.530883789063	-318.1350708007813	125.9734115600586	-1005.685791015625	-416.6505126953126	93.47450256347658	-1016.738220214844	-216.0584411621094	45.90707015991212	-1017.971557617188	-209.710678100586	45.57774734497071	-1068.863891601563	-257.0236206054688	33.23674774169923	-1113.035522460938	-255.491683959961	705.6848144531251	-833.0925292968752	-189.1939392089844	696.5296020507814	-832.732849121094	-168.3536224365235	721.3303833007814	-840.199401855469	-149.5977935791016	619.9952392578126	-843.6645507812502	-38.96272277832032	541.0949707031251	-849.6354980468752	-38.45174407958985	535.0783691406251	-970.2976684570315	114.9100494384766	442.0451660156251	-869.228454589844	112.1162643432617	332.3366699218751	-828.5944824218752	144.2206420898438	365.5148315429688	-839.730895996094	187.356185913086	335.8174438476563	-865.976501464844	225.424545288086	202.2859039306641	-828.6564941406252	241.902084350586	227.6819152832032	-909.6599731445315	228.2879638671876	121.6855926513672	-891.1588134765627	366.3497009277344	289.5166931152344	-879.0231933593752	358.4806518554688	293.0412902832032	-832.6669921875002	347.0786132812501	247.5569000244141	-788.3646240234377	215.4996490478516	1325.160034179688	-1277.880249023438	
687	3.43	-221.8822631835938	1572.954833984375	-1107.887451171875	-378.2556762695313	1525.448486328125	-1170.658203125	-371.7471618652344	1512.39208984375	-1025.902954101563	-444.5278930664064	1364.908325195313	-1094.718383789063	-495.6892700195314	1087.070922851563	-1070.771362304688	-302.1728515625001	1326.032104492188	-1104.632934570313	-364.8154602050782	1376.534423828125	-1240.46240234375	-202.8530273437501	1321.584838867188	-1370.137451171875	-175.5957641601563	1353.9267578125	-1341.625244140625	-133.3743286132813	1328.3544921875	-1376.311889648438	-72.65785980224611	1331.398315429688	-1376.288940429688	-62.23623275756837	1257.747192382813	-1354.4990234375	222.9150695800782	1342.283813476563	-1348.604858398438	286.1651611328126	1359.016845703125	-1259.399047851563	-345.5842285156251	1369.777465820313	-965.0918579101565	-191.8682861328125	1348.348022460938	-846.0577392578127	-156.7122192382813	1358.4794921875	-877.7661743164065	-124.6406631469727	1345.995239257813	-828.0001220703127	-51.65340805053712	1343.438720703125	-817.2879028320315	-44.49548339843751	1266.622314453125	-835.872985839844	230.1872100830079	1343.397827148438	-873.4782714843752	234.1770477294922	1357.103393554688	-804.9946289062502	309.5752563476563	1378.771484375	-872.1021728515627	-323.1170043945313	893.397644042969	-1151.193359375	-364.9977722167969	924.4355468750002	-906.2810668945315	-511.552215576172	922.1044921875002	-1050.4052734375	-515.3449707031251	888.5128173828127	-1076.567504882813	-523.2780151367189	892.387145996094	-1020.227661132813	-208.1656799316407	618.3676757812501	-1213.1826171875	-138.5223693847657	567.9453125000001	-1211.323608398438	-102.7575378417969	595.4422607421876	-1188.380126953125	-135.8249969482422	509.2606201171876	-1194.295166015625	-114.3689270019532	458.9077453613282	-1181.480102539063	-101.6438217163086	464.7105407714845	-1065.941650390625	-146.5697784423828	290.8729858398438	-1081.892700195313	-207.1687316894532	263.5811157226563	-1140.963134765625	-175.0392608642578	247.1148376464844	-1110.009643554688	-224.5398712158204	191.39892578125	-1068.684448242188	-360.2696533203126	107.9768829345703	-1078.37890625	-318.0823364257813	125.9238052368164	-1005.621520996094	-416.639373779297	93.49047851562501	-1016.708251953125	-216.0359497070313	45.83745574951173	-1017.973205566406	-209.6658172607422	45.5884132385254	-1068.805541992188	-257.0501403808594	33.27222061157227	-1113.052612304688	-255.3076324462891	704.8998413085939	-832.9500122070315	-189.0589752197266	696.0401000976564	-832.5212402343752	-168.3462982177735	720.7661132812501	-840.3006591796877	-149.4275817871094	619.4463500976564	-843.687683105469	-38.85393905639649	540.6867065429689	-849.7866821289065	-38.24626541137696	534.6763916015626	-970.4646606445315	115.2476959228516	441.8235473632814	-869.3126220703127	112.840560913086	332.0813903808594	-828.8862304687502	144.7679138183594	365.3087463378907	-839.9089355468752	187.8372802734375	335.7006835937501	-866.2378540039065	225.7808685302735	201.9113464355469	-829.1595458984377	242.5419158935547	227.6883697509766	-910.0509033203127	229.3688507080079	121.8549194335938	-891.5061035156252	367.0924072265626	289.7770080566407	-879.4588012695315	359.0805969238282	293.1993408203126	-832.9747314453127	347.7576904296876	247.4985504150391	-788.5979614257815	216.2006988525391	1324.381958007813	-1277.682006835938	
688	3.435	-220.9234619140626	1571.717895507813	-1108.107788085938	-377.3359680175782	1524.775756835938	-1170.814819335938	-371.0703735351563	1511.46728515625	-1026.150390625	-443.9080200195314	1363.992797851563	-1094.744995117188	-495.6560363769532	1086.3330078125	-1070.75146484375	-301.7137145996094	1324.780395507813	-1104.709228515625	-364.3584289550782	1375.319946289063	-1240.42578125	-202.4539794921876	1320.304931640625	-1370.179809570313	-175.0724487304688	1352.873413085938	-1341.854248046875	-133.2988433837891	1327.59033203125	-1376.27978515625	-71.75479888916017	1330.156005859375	-1376.200927734375	-61.6581497192383	1256.8583984375	-1354.559936523438	223.5148315429688	1341.449096679688	-1348.511108398438	286.5804748535157	1358.493774414063	-1259.342407226563	-345.0067443847657	1368.684326171875	-965.0237426757815	-191.44921875	1347.390258789063	-846.2612304687502	-155.9055938720703	1357.5244140625	-877.880065917969	-123.7915115356446	1345.241821289063	-828.2193603515627	-51.02643203735353	1342.568969726563	-817.5342407226565	-43.71936416625977	1265.76171875	-836.3589477539065	231.0661010742188	1342.755859375	-873.644226074219	234.7097778320313	1356.208129882813	-804.968444824219	310.1962280273438	1377.781127929688	-871.724792480469	-323.0388488769532	892.5796508789065	-1151.204467773438	-365.0312805175782	923.545593261719	-906.2768554687502	-511.6399230957032	921.3414306640627	-1050.43408203125	-515.2800903320314	887.4448242187502	-1076.551391601563	-523.3788452148439	891.4107666015627	-1020.2529296875	-207.9046630859376	617.7132568359376	-1212.879638671875	-138.0980529785157	567.6807861328126	-1211.051879882813	-102.5116653442383	595.0628051757814	-1188.0517578125	-135.4356689453125	508.7000732421876	-1194.123168945313	-113.8116760253907	458.5250854492189	-1181.222778320313	-101.354965209961	464.3880615234376	-1065.688842773438	-146.1497039794922	290.6711425781251	-1081.718872070313	-206.8813629150391	263.4146728515626	-1140.842163085938	-174.9755096435547	247.0411987304688	-1109.782592773438	-224.3446350097657	191.2855834960938	-1068.384155273438	-360.2167968750001	108.0117111206055	-1078.315673828125	-318.0895996093751	125.9007720947266	-1005.50634765625	-416.6501770019532	93.46556091308595	-1016.695373535156	-215.9921417236329	45.72155380249024	-1017.947937011719	-209.6673126220704	45.56848526000977	-1068.801147460938	-257.0134277343751	33.32439041137696	-1113.007446289063	-255.0800933837891	704.3021850585939	-832.9941406250002	-188.7130584716797	695.7751464843751	-832.1647949218752	-168.2603149414063	720.2939453125001	-840.4087524414065	-149.231201171875	618.9379882812501	-843.7185668945315	-38.68759918212891	540.2598876953126	-849.9510498046877	-37.97966384887696	534.3170166015626	-970.586120605469	115.6049880981446	441.6463012695314	-869.4548339843752	113.3328475952149	331.9265136718751	-829.013122558594	145.2062225341797	365.0871582031251	-840.0452880859377	188.281494140625	335.7763061523438	-866.4480590820315	226.4478607177735	201.8577270507813	-829.4231567382815	243.148910522461	227.765365600586	-910.4263916015627	230.3329162597657	121.6995162963867	-891.9683837890627	368.0097045898438	289.7440490722657	-879.7938232421877	359.9114074707032	293.3043212890626	-833.3565063476565	348.5340576171876	247.416976928711	-788.9541015625002	217.3096008300782	1323.43310546875	-1277.499145507813	
